<?xml version="1.0" encoding="utf-8"?>
<!-- Generator: Adobe Illustrator 23.0.1, SVG Export Plug-In . SVG Version: 6.00 Build 0)  -->
<svg version="1.1" id="Layer_1" xmlns="http://www.w3.org/2000/svg" xmlns:xlink="http://www.w3.org/1999/xlink" x="0px" y="0px"
	 viewBox="0 0 512 512" style="enable-background:new 0 0 512 512;" xml:space="preserve">
<style type="text/css">
	.st0{fill:#9A9B9F;}
</style>
<path class="st0" d="M366,61h-65v-46c0-8.3-6.7-15-15-15L227,0c-8.3,0-15,6.7-15,15v46h-66c-30.3,0-55,24.7-55,55v341
	c0,30.3,24.7,55,55,55h220c30.3,0,55-24.7,55-55V116C421,85.7,396.3,61,366,61z M242,30l29,0v61h-29V30z M391,457
	c0,13.8-11.2,25-25,25H146c-13.8,0-25-11.2-25-25V116c0-13.8,11.2-25,25-25h66v15c0,8.3,6.7,15,15,15h59c8.3,0,15-6.7,15-15V91h65
	c13.8,0,25,11.2,25,25V457z"/>
<path class="st0" d="M346,361H166c-8.3,0-15,6.7-15,15s6.7,15,15,15h180c8.3,0,15-6.7,15-15S354.3,361,346,361z"/>
<path class="st0" d="M226,421h-60c-8.3,0-15,6.7-15,15c0,8.3,6.7,15,15,15h60c8.3,0,15-6.7,15-15C241,427.7,234.3,421,226,421z"/>
<path class="st0" d="M346,421h-60c-8.3,0-15,6.7-15,15c0,8.3,6.7,15,15,15h60c8.3,0,15-6.7,15-15C361,427.7,354.3,421,346,421z"/>
<path class="st0" d="M196,331h120c8.3,0,15-6.7,15-15v-30c0-27.6-14.9-51.9-37.6-65c19.9-29.7-1.5-70-37.4-70
	c-36,0-57.4,40.4-37.3,70.1C195.1,234.9,181,260.4,181,287v29C181,324.3,187.7,331,196,331z M256,181c8.3,0,15,6.7,15,15
	s-6.7,15-15,15s-15-6.7-15-15S247.7,181,256,181z M211,287c0-25.5,20.6-46.5,45.9-46c24.3,0.5,44.1,20.7,44.1,45v15h-90V287z"/>
</svg>
