<?xml version="1.0" encoding="utf-8"?>
<!-- Generator: Adobe Illustrator 23.0.1, SVG Export Plug-In . SVG Version: 6.00 Build 0)  -->
<svg version="1.1" id="Capa_1" xmlns="http://www.w3.org/2000/svg" xmlns:xlink="http://www.w3.org/1999/xlink" x="0px" y="0px"
	 viewBox="0 0 512 512" style="enable-background:new 0 0 512 512;" xml:space="preserve">
<style type="text/css">
	.st0{fill:#9A9B9F;}
</style>
<path class="st0" d="M144,256h224c8.8,0,16-7.2,16-16v-48h-32v32H160v-32h-32v48C128,248.8,135.2,256,144,256L144,256z"/>
<path class="st0" d="M512,32H0v128h32v304c0,8.8,7.2,16,16,16h416c8.8,0,16-7.2,16-16V160h32V32z M448,448H64V160h384V448z M480,128
	H32V64h448L480,128L480,128z"/>
</svg>
