<svg id="Capa_1" enable-background="new 0 0 419.175 419.175" height="512" viewBox="0 0 419.175 419.175" width="512" xmlns="http://www.w3.org/2000/svg"><path d="m414.79 124.15-119.765-119.764c-2.807-2.807-6.608-4.386-10.585-4.386h-269.469c-8.275 0-14.971 6.696-14.971 14.971v389.234c0 8.275 6.696 14.971 14.971 14.971h389.234c8.275 0 14.971-6.696 14.971-14.971v-269.47c-.001-3.977-1.58-7.778-4.386-10.585zm-115.379-73.04 68.654 68.654h-53.684c-8.26 0-14.971-6.71-14.971-14.971v-53.683zm-269.47 338.125v-359.293h239.529v74.853c0 24.766 20.146 44.912 44.912 44.912h74.853v239.529h-359.294z"/><path d="m287.35 270.523c-47.631-20.965-107.893-20.965-155.524 0-16.418 7.237-27.032 23.479-27.032 41.374v47.397h209.588v-47.397c0-17.895-10.614-34.138-27.032-41.374zm-2.909 58.829h-149.706v-17.456c0-6.038 3.596-11.52 9.167-13.976 40.058-17.631 91.314-17.631 131.373 0 5.57 2.456 9.167 7.938 9.167 13.976-.001 0-.001 17.456-.001 17.456z"/><path d="m209.588 239.529c33.026 0 59.882-26.856 59.882-59.882s-26.856-59.882-59.882-59.882-59.882 26.856-59.882 59.882 26.856 59.882 59.882 59.882zm0-89.823c16.506 0 29.941 13.435 29.941 29.941s-13.435 29.941-29.941 29.941-29.941-13.435-29.941-29.941 13.436-29.941 29.941-29.941z"/></svg>