<svg id="Layer_1" enable-background="new 0 0 511.34 511.34" height="512" viewBox="0 0 511.34 511.34" width="512" xmlns="http://www.w3.org/2000/svg"><path d="m410.335 0c-22.835 0-346.43 0-357.33 0-11.598 0-21 9.402-21 21v469.34c0 11.598 9.402 21 21 21h357.33c38.047 0 69-30.953 69-69v-373.34c0-38.047-30.953-69-69-69zm-336.33 42h251c14.888 0 27 12.112 27 27v373.34c0 14.888-12.112 27-27 27h-251zm363.33 400.34c0 14.888-12.112 27-27 27h-21.833c3.592-8.433 5.502-17.862 5.502-27 0-403.673 2.259-382.086-5.47-400.259-.05-.119-1.721-.081 21.801-.081 14.888 0 27 12.112 27 27z"/><path d="m265.708 248.676c28.476-41.94-1.617-99.339-52.707-99.339-51.102 0-81.179 57.409-52.705 99.342-32.011 18.347-53.625 52.858-53.625 92.324 0 11.598 9.402 21 21 21s21-9.402 21-21c0-35.474 28.86-64.333 64.333-64.333s64.333 28.859 64.333 64.333c0 11.598 9.402 21 21 21s21-9.402 21-21c.001-39.468-21.615-73.981-53.629-92.327zm-52.707-57.339c11.947 0 21.667 9.72 21.667 21.666 0 11.947-9.72 21.667-21.667 21.667s-21.667-9.72-21.667-21.667c.001-11.946 9.721-21.666 21.667-21.666z"/></svg>