<?xml version="1.0" encoding="utf-8"?>
<!-- Generator: Adobe Illustrator 23.0.1, SVG Export Plug-In . SVG Version: 6.00 Build 0)  -->
<svg version="1.1" id="Layer_1" xmlns="http://www.w3.org/2000/svg" xmlns:xlink="http://www.w3.org/1999/xlink" x="0px" y="0px"
	 viewBox="0 0 512 512" style="enable-background:new 0 0 512 512;" xml:space="preserve">
<style type="text/css">
	.st0{fill:#9A9B9F;}
</style>
<path class="st0" d="M410.9,0C388,0,64,0,53.1,0C41.5,0,32,9.4,32,21V491c0,11.6,9.4,21,21,21h357.8c38.1,0,69.1-31,69.1-69.1V69.1
	C480,31,449,0,410.9,0z M74.1,42.1h251.3c14.9,0,27,12.1,27,27v373.8c0,14.9-12.1,27-27,27H74.1V42.1z M437.9,442.9
	c0,14.9-12.1,27-27,27H389c3.6-8.4,5.5-17.9,5.5-27c0-404.2,2.3-382.6-5.5-400.8c-0.1-0.1-1.7-0.1,21.8-0.1c14.9,0,27,12.1,27,27
	V442.9z"/>
<path class="st0" d="M266.1,249c28.5-42-1.6-99.5-52.8-99.5c-51.2,0-81.3,57.5-52.8,99.5c-32.1,18.4-53.7,52.9-53.7,92.4
	c0,11.6,9.4,21,21,21s21-9.4,21-21c0-35.5,28.9-64.4,64.4-64.4s64.4,28.9,64.4,64.4c0,11.6,9.4,21,21,21c11.6,0,21-9.4,21-21
	C319.8,301.9,298.1,267.4,266.1,249L266.1,249z M213.3,191.6c12,0,21.7,9.7,21.7,21.7c0,12-9.7,21.7-21.7,21.7
	c-12,0-21.7-9.7-21.7-21.7C191.6,201.3,201.3,191.6,213.3,191.6z"/>
</svg>
