<?xml version="1.0" encoding="utf-8"?>
<!-- Generator: Adobe Illustrator 23.0.1, SVG Export Plug-In . SVG Version: 6.00 Build 0)  -->
<svg version="1.1" id="Capa_1" xmlns="http://www.w3.org/2000/svg" xmlns:xlink="http://www.w3.org/1999/xlink" x="0px" y="0px"
	 viewBox="0 0 304.4 304.4" style="enable-background:new 0 0 304.4 304.4;" xml:space="preserve">
<style type="text/css">
	.st0{fill:#9A9B9F;}
</style>
<g>
	<path class="st0" d="M80.8,53.3c-6.6-8.2-19.5-8.5-27.5,0.5C33,76.8,1.7,124.4,16.4,187.7c0,0-4.1,1.2-9.3,2.7
		c-5.1,1.5-2.5,9.7,5.9,18.3l35.9,36.9c8.4,8.6,16.6,6,18.4-5.9l7.2-48.3c1.8-11.9-2.3-19.9-9.1-17.9L53,177
		c-8.9-42.1,10-75.1,24.7-93.3C85.3,74.4,87.4,61.5,80.8,53.3z"/>
	<path class="st0" d="M121.7,300.8c9.5,1.9,21.6,3.6,35.3,3.6c29.2,0,65.3-7.7,97.5-36.7c0,0,4.1,3.9,9.2,8.8
		c5.1,4.9,11.8-0.5,15.1-12.1l14.1-49.5c3.3-11.6-3.1-17.4-14.3-13l-45.4,17.8c-11.2,4.4-17.1,11-13.3,14.7l7,6.7
		c-31.7,27.1-68.7,27.1-91.4,23.4c-11.9-1.9-24.1,2.7-27.9,12.5C103.8,287,110,298.3,121.7,300.8z"/>
	<path class="st0" d="M299.3,127.6c-6.9-29.3-26.8-80.8-84.1-106.1c0,0,1.9-5.5,4.2-12.2c2.3-6.7-5.4-10.7-17.3-8.9l-50.8,7.9
		c-11.9,1.8-14.5,10.1-5.8,18.4l35.2,33.8c8.7,8.3,17.1,11.1,18.8,6.1l3.1-8.9c36.8,17.6,52,50.7,58.1,72.5
		c3.3,11.6,12.6,20.8,23.1,20.1C294.3,149.6,302,139.3,299.3,127.6z"/>
</g>
</svg>
