<?xml version="1.0" encoding="utf-8"?>
<!-- Generator: Adobe Illustrator 23.0.1, SVG Export Plug-In . SVG Version: 6.00 Build 0)  -->
<svg version="1.1" id="Capa_1" xmlns="http://www.w3.org/2000/svg" xmlns:xlink="http://www.w3.org/1999/xlink" x="0px" y="0px"
	 viewBox="0 0 522.5 522.5" style="enable-background:new 0 0 522.5 522.5;" xml:space="preserve">
<style type="text/css">
	.st0{fill:#9A9B9F;}
</style>
<g>
	<g>
		<path class="st0" d="M201.4,381c0-90,73.2-163.3,163.3-163.3c32,0,61.8,9.4,87.1,25.4V98c0-6-4.9-10.9-10.9-10.9H70.8
			c-18,0-32.7-14.7-32.7-32.7s14.7-32.7,32.7-32.7h370.1c6,0,10.9-4.9,10.9-10.9S446.8,0,440.8,0H70.8c-30,0-54.4,24.4-54.4,54.4
			V468c0,30,24.4,54.4,54.4,54.4h212.8C234.5,494.3,201.4,441.5,201.4,381z M364.6,239.5c-78,0-141.5,63.5-141.5,141.5
			s63.5,141.5,141.5,141.5S506.1,459,506.1,381S442.7,239.5,364.6,239.5z M415.9,399.6l-43.5,43.5l-3.5,2.4l-4.2,0.8l-4.2-0.8
			l-3.5-2.4l-43.5-43.5c-4.2-4.2-4.2-11.1,0-15.4s11.1-4.2,15.4,0l24.9,24.9v-82.6c0-6,4.9-10.9,10.9-10.9c6,0,10.9,4.9,10.9,10.9
			v82.6l24.9-24.9c4.2-4.2,11.1-4.2,15.4,0C420.1,388.4,420.1,395.3,415.9,399.6z M70.8,43.5c-6,0-10.9,4.9-10.9,10.9
			s4.9,10.9,10.9,10.9h348.3c6,0,10.9-4.9,10.9-10.9s-4.9-10.9-10.9-10.9C419.1,43.5,70.8,43.5,70.8,43.5z"/>
	</g>
</g>
</svg>
