<?xml version="1.0" encoding="utf-8"?>
<!-- Generator: Adobe Illustrator 23.0.1, SVG Export Plug-In . SVG Version: 6.00 Build 0)  -->
<svg version="1.1" id="Layer_1" xmlns="http://www.w3.org/2000/svg" xmlns:xlink="http://www.w3.org/1999/xlink" x="0px" y="0px"
	 viewBox="0 0 512 512" style="enable-background:new 0 0 512 512;" xml:space="preserve">
<style type="text/css">
	.st0{fill:#9A9B9F;}
</style>
<path class="st0" d="M332,53.2h-44.5C286.4,23.7,262,0,232.3,0h-61.5c-29.8,0-54.1,23.7-55.3,53.2H71c-24.8,0-45,20.2-45,45V467
	c0,24.8,20.2,45,45,45h261c24.8,0,45-20.2,45-45V98.2C377,73.4,356.9,53.2,332,53.2z M347,467c0,8.3-6.7,15-15,15H71
	c-8.3,0-15-6.7-15-15V98.2c0-8.3,6.7-15,15-15h44.5v5.1c0,8.3,6.7,15,15,15h142.1c8.3,0,15-6.7,15-15v-5.1H332c8.3,0,15,6.7,15,15
	V467z M170.8,30h61.5c14,0,25.3,11.4,25.3,25.3v18H145.5v-18C145.5,41.4,156.8,30,170.8,30z"/>
<path class="st0" d="M165.1,142H113c-8.3,0-15,6.7-15,15v52.1c0,8.3,6.7,15,15,15h52.1c8.3,0,15-6.7,15-15V157
	C180.1,148.7,173.4,142,165.1,142z M150.1,194.2H128V172h22.1V194.2z"/>
<path class="st0" d="M290.1,146.3h-82.8c-8.3,0-15,6.7-15,15c0,8.3,6.7,15,15,15h82.8c8.3,0,15-6.7,15-15
	C305.1,153.1,298.4,146.3,290.1,146.3z"/>
<path class="st0" d="M290.1,189.8h-82.8c-8.3,0-15,6.7-15,15s6.7,15,15,15h82.8c8.3,0,15-6.7,15-15S298.4,189.8,290.1,189.8z"/>
<path class="st0" d="M165.1,246H113c-8.3,0-15,6.7-15,15v52.1c0,8.3,6.7,15,15,15h52.1c8.3,0,15-6.7,15-15V261
	C180.1,252.7,173.4,246,165.1,246z M150.1,298.1H128V276h22.1V298.1z"/>
<path class="st0" d="M290.1,250.3h-82.8c-8.3,0-15,6.7-15,15s6.7,15,15,15h82.8c8.3,0,15-6.7,15-15S298.4,250.3,290.1,250.3z"/>
<path class="st0" d="M290.1,293.8h-82.8c-8.3,0-15,6.7-15,15c0,8.3,6.7,15,15,15h82.8c8.3,0,15-6.7,15-15
	C305.1,300.5,298.4,293.8,290.1,293.8z"/>
<path class="st0" d="M165.1,349.9H113c-8.3,0-15,6.7-15,15v52.1c0,8.3,6.7,15,15,15h52.1c8.3,0,15-6.7,15-15v-52.1
	C180.1,356.7,173.4,349.9,165.1,349.9z M150.1,402.1H128v-22.1h22.1V402.1z"/>
<path class="st0" d="M290.1,354.3h-82.8c-8.3,0-15,6.7-15,15s6.7,15,15,15h82.8c8.3,0,15-6.7,15-15S298.4,354.3,290.1,354.3z"/>
<path class="st0" d="M290.1,397.8h-82.8c-8.3,0-15,6.7-15,15c0,8.3,6.7,15,15,15h82.8c8.3,0,15-6.7,15-15
	C305.1,404.5,298.4,397.8,290.1,397.8z"/>
<path class="st0" d="M442,93.3c-24.7,0-44.9,20.1-44.9,44.9v305.4c0,2.6,0.7,5.1,1.9,7.3l29.9,53.5c2.6,4.7,7.7,7.7,13.1,7.7
	c5.4,0,10.4-2.9,13.1-7.7l29.9-53.5c1.2-2.2,1.9-4.8,1.9-7.3V138.1C486.9,113.4,466.8,93.3,442,93.3z M442,123.3
	c8.2,0,14.9,6.7,14.9,14.9v11.3h-29.7v-11.3C427.2,129.9,433.8,123.3,442,123.3z M456.9,179.4v219.1h-29.7V179.4H456.9z
	 M427.2,428.5h29.7v11.1L442,466.2l-14.9-26.6V428.5z"/>
</svg>
