<svg height="512pt" viewBox="-26 0 512 512" width="512pt" xmlns="http://www.w3.org/2000/svg"><path d="m306.046875 53.191406h-44.53125c-1.121094-29.519531-25.476563-53.191406-55.265625-53.191406h-61.457031c-29.789063 0-54.140625 23.671875-55.265625 53.191406h-44.527344c-24.8125 0-45 20.1875-45 45v368.808594c0 24.8125 20.1875 45 45 45h261.046875c24.8125 0 45-20.1875 45-45v-368.808594c0-24.8125-20.1875-45-45-45zm15 413.808594c0 8.269531-6.730469 15-15 15h-261.046875c-8.269531 0-15-6.730469-15-15v-368.808594c0-8.269531 6.730469-15 15-15h44.476562v5.085938c0 8.285156 6.714844 15 15 15h142.09375c8.285157 0 15-6.714844 15-15v-5.085938h44.476563c8.269531 0 15 6.730469 15 15zm-176.253906-437h61.457031c13.960938 0 25.320312 11.359375 25.320312 25.316406v17.960938h-112.09375v-17.960938c0-13.957031 11.355469-25.316406 25.316407-25.316406zm0 0"/><path d="m139.105469 142.023438h-52.136719c-8.285156 0-15 6.714843-15 15v52.132812c0 8.285156 6.714844 15 15 15h52.136719c8.285156 0 15-6.714844 15-15v-52.132812c0-8.285157-6.714844-15-15-15zm-15 52.136718h-22.136719v-22.136718h22.136719zm0 0"/><path d="m264.074219 146.347656h-82.800781c-8.285157 0-15 6.714844-15 15 0 8.28125 6.714843 15 15 15h82.800781c8.285156 0 15-6.71875 15-15 0-8.285156-6.714844-15-15-15zm0 0"/><path d="m264.074219 189.835938h-82.800781c-8.285157 0-15 6.714843-15 15 0 8.285156 6.714843 15 15 15h82.800781c8.285156 0 15-6.714844 15-15 0-8.285157-6.714844-15-15-15zm0 0"/><path d="m139.105469 245.984375h-52.136719c-8.285156 0-15 6.714844-15 15v52.136719c0 8.28125 6.714844 15 15 15h52.136719c8.285156 0 15-6.71875 15-15v-52.136719c0-8.285156-6.714844-15-15-15zm-15 52.136719h-22.136719v-22.136719h22.136719zm0 0"/><path d="m264.074219 250.308594h-82.800781c-8.285157 0-15 6.714844-15 15s6.714843 15 15 15h82.800781c8.285156 0 15-6.714844 15-15s-6.714844-15-15-15zm0 0"/><path d="m264.074219 293.796875h-82.800781c-8.285157 0-15 6.71875-15 15 0 8.285156 6.714843 15 15 15h82.800781c8.285156 0 15-6.714844 15-15 0-8.28125-6.714844-15-15-15zm0 0"/><path d="m139.105469 349.945312h-52.136719c-8.285156 0-15 6.71875-15 15v52.136719c0 8.285157 6.714844 15 15 15h52.136719c8.285156 0 15-6.714843 15-15v-52.136719c0-8.28125-6.714844-15-15-15zm-15 52.136719h-22.136719v-22.136719h22.136719zm0 0"/><path d="m264.074219 354.269531h-82.800781c-8.285157 0-15 6.714844-15 15 0 8.285157 6.714843 15 15 15h82.800781c8.285156 0 15-6.714843 15-15 0-8.285156-6.714844-15-15-15zm0 0"/><path d="m264.074219 397.761719h-82.800781c-8.285157 0-15 6.714843-15 15 0 8.28125 6.714843 15 15 15h82.800781c8.285156 0 15-6.71875 15-15 0-8.285157-6.714844-15-15-15zm0 0"/><path d="m416.023438 93.273438c-24.738282 0-44.867188 20.128906-44.867188 44.867187v305.402344c0 2.5625.65625 5.078125 1.90625 7.316406l29.867188 53.457031c2.648437 4.742188 7.660156 7.683594 13.09375 7.683594 5.4375 0 10.445312-2.9375 13.09375-7.683594l29.871093-53.457031c1.246094-2.238281 1.902344-4.753906 1.902344-7.316406v-305.402344c0-24.738281-20.125-44.867187-44.867187-44.867187zm0 30c8.199218 0 14.867187 6.667968 14.867187 14.867187v11.304687h-29.734375v-11.304687c0-8.199219 6.667969-14.867187 14.867188-14.867187zm14.867187 56.171874v219.09375h-29.734375v-219.09375zm-29.734375 249.09375h29.734375v11.097657l-14.867187 26.609375-14.867188-26.609375zm0 0"/></svg>