<svg id="Capa_1" enable-background="new 0 0 415.882 415.882" height="512" viewBox="0 0 415.882 415.882" width="512" xmlns="http://www.w3.org/2000/svg"><path d="m401.029 415.881h-386.176c-8.21 0-14.853-6.643-14.853-14.852v-386.152c0-5.149 2.669-9.92 7.049-12.633 4.38-2.727 9.834-2.944 14.447-.653l53.45 26.716 68.071-27.224c3.96-1.566 8.413-1.378 12.199.537l52.565 26.513 52.914-26.528c3.771-1.944 8.21-2.118 12.17-.522l68.071 27.224 53.45-26.716c4.598-2.321 10.052-2.103 14.447.653 4.38 2.712 7.049 7.484 7.049 12.633v386.152c0 8.209-6.644 14.852-14.853 14.852zm-371.323-29.706h356.47v-347.287l-37.916 18.957c-3.8 1.915-8.21 2.103-12.155.508l-68.071-27.226-53.61 26.877c-4.206 2.118-9.167 2.074-13.344-.015l-53.262-26.863-68.042 27.227c-3.902 1.596-8.326 1.407-12.155-.508l-37.915-18.957z"/><path d="m341.617 178.233h-267.352c-8.21 0-14.853-6.643-14.853-14.853v-59.412c0-8.21 6.643-14.853 14.853-14.853h267.352c8.21 0 14.853 6.643 14.853 14.853v59.412c0 8.21-6.643 14.853-14.853 14.853zm-252.5-29.706h237.647v-29.706h-237.647z"/><path d="m193.088 356.468h-118.823c-8.21 0-14.853-6.643-14.853-14.853v-118.823c0-8.21 6.643-14.853 14.853-14.853h118.823c8.21 0 14.853 6.643 14.853 14.853v118.823c0 8.21-6.643 14.853-14.853 14.853zm-103.971-29.706h89.117v-89.117h-89.117z"/><path id="path-1_10_" d="m237.647 207.939h118.823v29.706h-118.823z" transform="translate(9 8)"/><path id="path-1_9_" d="m237.647 267.351h118.823v29.706h-118.823z" transform="translate(9 10)"/><path id="path-1_8_" d="m237.647 326.762h118.823v29.706h-118.823z" transform="translate(9 12)"/></svg>