<?xml version="1.0" encoding="utf-8"?>
<!-- Generator: Adobe Illustrator 22.0.0, SVG Export Plug-In . SVG Version: 6.00 Build 0)  -->
<svg version="1.1" id="Capa_1" xmlns="http://www.w3.org/2000/svg" xmlns:xlink="http://www.w3.org/1999/xlink" x="0px" y="0px"
	 viewBox="0 0 474.8 474.8" style="enable-background:new 0 0 474.8 474.8;" xml:space="preserve">
<g>
	<g>
		<path d="M439,111.2l-31.4-31.4c-4.6-4.6-10-6.9-16.3-6.9c-6.3,0-11.7,2.3-16.3,6.9L190.3,264.5l-75.1-75.1
			c-4.6-4.6-10-6.9-16.3-6.9c-6.3,0-11.7,2.3-16.3,6.9l-31.4,31.4c-4.6,4.6-6.9,10-6.9,16.3c0,6.3,2.3,11.7,6.9,16.3L174,376.2
			c4.6,4.6,10,6.9,16.3,6.9s11.7-2.3,16.3-6.9l232.4-232.4c4.6-4.6,6.9-10,6.9-16.3S443.5,115.8,439,111.2z"/>
	</g>
</g>
</svg>
